solid OpenSCAD_Model
  facet normal -1 0 0
    outer loop
      vertex -7 -93 -11
      vertex -7 7 -4.5
      vertex -7 7 -11
    endloop
  endfacet
  facet normal -1 -0 0
    outer loop
      vertex -7 7 -4.5
      vertex -7 -93 -11
      vertex -7 -93 -4.5
    endloop
  endfacet
  facet normal -0 0 -1
    outer loop
      vertex 5 -86 -11
      vertex -2.60385 -86.7419 -11
      vertex 5 -5 -11
    endloop
  endfacet
  facet normal 0 0 -1
    outer loop
      vertex 5 -5 -11
      vertex -1.15385 1.79542 -11
      vertex -0.599999 3.5 -11
    endloop
  endfacet
  facet normal 0 0 -1
    outer loop
      vertex -4.39615 -86.7419 -11
      vertex 5 -5 -11
      vertex -2.60385 -86.7419 -11
    endloop
  endfacet
  facet normal 0 0 -1
    outer loop
      vertex 5 -5 -11
      vertex -2.60385 0.741936 -11
      vertex -1.15385 1.79542 -11
    endloop
  endfacet
  facet normal 0 0 -1
    outer loop
      vertex -4.39615 0.741936 -11
      vertex 5 -5 -11
      vertex -4.39615 -86.7419 -11
    endloop
  endfacet
  facet normal 0 0 -1
    outer loop
      vertex 5 -5 -11
      vertex -4.39615 0.741936 -11
      vertex -2.60385 0.741936 -11
    endloop
  endfacet
  facet normal 0 0 -1
    outer loop
      vertex -5.84615 -87.7954 -11
      vertex -4.39615 0.741936 -11
      vertex -4.39615 -86.7419 -11
    endloop
  endfacet
  facet normal 0 0 -1
    outer loop
      vertex -5.84615 -87.7954 -11
      vertex -5.84615 1.79542 -11
      vertex -4.39615 0.741936 -11
    endloop
  endfacet
  facet normal 0 0 -1
    outer loop
      vertex -6.4 -89.5 -11
      vertex -5.84615 1.79542 -11
      vertex -5.84615 -87.7954 -11
    endloop
  endfacet
  facet normal -0 0 -1
    outer loop
      vertex -5.84615 1.79542 -11
      vertex -6.4 -89.5 -11
      vertex -6.4 3.5 -11
    endloop
  endfacet
  facet normal 0 0 -1
    outer loop
      vertex 91.8461 -87.7954 -11
      vertex 92.4 3.5 -11
      vertex 92.4 -89.5 -11
    endloop
  endfacet
  facet normal 0 0 -1
    outer loop
      vertex 91.8461 -87.7954 -11
      vertex 91.8461 1.79542 -11
      vertex 92.4 3.5 -11
    endloop
  endfacet
  facet normal 0 0 -1
    outer loop
      vertex 86 -5 -11
      vertex 91.8461 -87.7954 -11
      vertex 90.3961 -86.7419 -11
    endloop
  endfacet
  facet normal 0 0 -1
    outer loop
      vertex 91.8461 -87.7954 -11
      vertex 86 -5 -11
      vertex 91.8461 1.79542 -11
    endloop
  endfacet
  facet normal 0 0 -1
    outer loop
      vertex 86 -86 -11
      vertex 90.3961 -86.7419 -11
      vertex 88.6039 -86.7419 -11
    endloop
  endfacet
  facet normal 0 0 -1
    outer loop
      vertex 91.8461 1.79542 -11
      vertex 86 -5 -11
      vertex 90.3961 0.741936 -11
    endloop
  endfacet
  facet normal 0 0 -1
    outer loop
      vertex 86 -86 -11
      vertex 88.6039 -86.7419 -11
      vertex 87.1539 -87.7954 -11
    endloop
  endfacet
  facet normal -0 0 -1
    outer loop
      vertex 90.3961 0.741936 -11
      vertex 86 -5 -11
      vertex 88.6039 0.741936 -11
    endloop
  endfacet
  facet normal 0 0 -1
    outer loop
      vertex 86 -86 -11
      vertex 87.1539 -87.7954 -11
      vertex 86.6 -89.5 -11
    endloop
  endfacet
  facet normal -0 0 -1
    outer loop
      vertex 88.6039 0.741936 -11
      vertex 86 -5 -11
      vertex 87.1539 1.79542 -11
    endloop
  endfacet
  facet normal 0 0 -1
    outer loop
      vertex 93 -93 -11
      vertex 92.4 -89.5 -11
      vertex 93 7 -11
    endloop
  endfacet
  facet normal 0 0 -1
    outer loop
      vertex 93 -93 -11
      vertex 91.8461 -91.2046 -11
      vertex 92.4 -89.5 -11
    endloop
  endfacet
  facet normal 0 0 -1
    outer loop
      vertex 93 -93 -11
      vertex 90.3961 -92.2581 -11
      vertex 91.8461 -91.2046 -11
    endloop
  endfacet
  facet normal 0 0 -1
    outer loop
      vertex 93 -93 -11
      vertex 88.6039 -92.2581 -11
      vertex 90.3961 -92.2581 -11
    endloop
  endfacet
  facet normal 0 0 -1
    outer loop
      vertex 90.3961 -86.7419 -11
      vertex 86 -86 -11
      vertex 86 -5 -11
    endloop
  endfacet
  facet normal 0 0 -1
    outer loop
      vertex 86.6 -89.5 -11
      vertex 5 -86 -11
      vertex 86 -86 -11
    endloop
  endfacet
  facet normal 0 0 -1
    outer loop
      vertex 87.1539 -91.2046 -11
      vertex 5 -86 -11
      vertex 86.6 -89.5 -11
    endloop
  endfacet
  facet normal 0 0 -1
    outer loop
      vertex -1.15385 -91.2046 -11
      vertex 87.1539 -91.2046 -11
      vertex 88.6039 -92.2581 -11
    endloop
  endfacet
  facet normal 0 0 -1
    outer loop
      vertex -2.60385 -92.2581 -11
      vertex 88.6039 -92.2581 -11
      vertex 93 -93 -11
    endloop
  endfacet
  facet normal 0 0 -1
    outer loop
      vertex -1.15385 -87.7954 -11
      vertex 5 -86 -11
      vertex -0.599999 -89.5 -11
    endloop
  endfacet
  facet normal 0 0 -1
    outer loop
      vertex 87.1539 -91.2046 -11
      vertex -1.15385 -91.2046 -11
      vertex 5 -86 -11
    endloop
  endfacet
  facet normal 0 0 -1
    outer loop
      vertex 5 -86 -11
      vertex -1.15385 -91.2046 -11
      vertex -0.599999 -89.5 -11
    endloop
  endfacet
  facet normal 0 0 -1
    outer loop
      vertex 88.6039 -92.2581 -11
      vertex -2.60385 -92.2581 -11
      vertex -1.15385 -91.2046 -11
    endloop
  endfacet
  facet normal 0 0 -1
    outer loop
      vertex -7 -93 -11
      vertex -2.60385 -92.2581 -11
      vertex 93 -93 -11
    endloop
  endfacet
  facet normal -0 0 -1
    outer loop
      vertex -6.4 -89.5 -11
      vertex -7 -93 -11
      vertex -6.4 3.5 -11
    endloop
  endfacet
  facet normal -0 0 -1
    outer loop
      vertex -5.84615 -91.2046 -11
      vertex -7 -93 -11
      vertex -6.4 -89.5 -11
    endloop
  endfacet
  facet normal -0 0 -1
    outer loop
      vertex -4.39615 -92.2581 -11
      vertex -7 -93 -11
      vertex -5.84615 -91.2046 -11
    endloop
  endfacet
  facet normal -0 0 -1
    outer loop
      vertex -2.60385 -92.2581 -11
      vertex -7 -93 -11
      vertex -4.39615 -92.2581 -11
    endloop
  endfacet
  facet normal 0 0 -1
    outer loop
      vertex 92.4 3.5 -11
      vertex 93 7 -11
      vertex 92.4 -89.5 -11
    endloop
  endfacet
  facet normal 0 0 -1
    outer loop
      vertex 91.8461 5.20458 -11
      vertex 93 7 -11
      vertex 92.4 3.5 -11
    endloop
  endfacet
  facet normal 0 0 -1
    outer loop
      vertex 90.3961 6.25806 -11
      vertex 93 7 -11
      vertex 91.8461 5.20458 -11
    endloop
  endfacet
  facet normal 0 0 -1
    outer loop
      vertex 88.6039 6.25806 -11
      vertex 93 7 -11
      vertex 90.3961 6.25806 -11
    endloop
  endfacet
  facet normal -0 0 -1
    outer loop
      vertex 87.1539 1.79542 -11
      vertex 86 -5 -11
      vertex 86.6 3.5 -11
    endloop
  endfacet
  facet normal 0 0 -1
    outer loop
      vertex 5 -5 -11
      vertex 86.6 3.5 -11
      vertex 86 -5 -11
    endloop
  endfacet
  facet normal 0 0 -1
    outer loop
      vertex 5 -5 -11
      vertex 87.1539 5.20458 -11
      vertex 86.6 3.5 -11
    endloop
  endfacet
  facet normal 0 0 -1
    outer loop
      vertex -1.15385 5.20458 -11
      vertex 87.1539 5.20458 -11
      vertex 5 -5 -11
    endloop
  endfacet
  facet normal 0 0 -1
    outer loop
      vertex 87.1539 5.20458 -11
      vertex -1.15385 5.20458 -11
      vertex 88.6039 6.25806 -11
    endloop
  endfacet
  facet normal 0 0 -1
    outer loop
      vertex -2.60385 -86.7419 -11
      vertex 5 -86 -11
      vertex -1.15385 -87.7954 -11
    endloop
  endfacet
  facet normal 0 0 -1
    outer loop
      vertex -1.15385 5.20458 -11
      vertex 5 -5 -11
      vertex -0.599999 3.5 -11
    endloop
  endfacet
  facet normal 0 0 -1
    outer loop
      vertex -2.60385 6.25806 -11
      vertex 88.6039 6.25806 -11
      vertex -1.15385 5.20458 -11
    endloop
  endfacet
  facet normal 0 0 -1
    outer loop
      vertex 88.6039 6.25806 -11
      vertex -2.60385 6.25806 -11
      vertex 93 7 -11
    endloop
  endfacet
  facet normal 0 0 -1
    outer loop
      vertex -7 7 -11
      vertex -2.60385 6.25806 -11
      vertex -4.39615 6.25806 -11
    endloop
  endfacet
  facet normal 0 0 -1
    outer loop
      vertex -2.60385 6.25806 -11
      vertex -7 7 -11
      vertex 93 7 -11
    endloop
  endfacet
  facet normal 0 0 -1
    outer loop
      vertex -5.84615 5.20458 -11
      vertex -7 7 -11
      vertex -4.39615 6.25806 -11
    endloop
  endfacet
  facet normal 0 0 -1
    outer loop
      vertex -6.4 3.5 -11
      vertex -7 7 -11
      vertex -5.84615 5.20458 -11
    endloop
  endfacet
  facet normal 0 0 -1
    outer loop
      vertex -7 7 -11
      vertex -6.4 3.5 -11
      vertex -7 -93 -11
    endloop
  endfacet
  facet normal 1 -0 0
    outer loop
      vertex 93 -93 -4.5
      vertex 93 7 -11
      vertex 93 7 -4.5
    endloop
  endfacet
  facet normal 1 0 0
    outer loop
      vertex 93 7 -11
      vertex 93 -93 -4.5
      vertex 93 -93 -11
    endloop
  endfacet
  facet normal 0 1 -0
    outer loop
      vertex 93 7 -11
      vertex -7 7 -4.5
      vertex 93 7 -4.5
    endloop
  endfacet
  facet normal 0 1 0
    outer loop
      vertex -7 7 -4.5
      vertex 93 7 -11
      vertex -7 7 -11
    endloop
  endfacet
  facet normal 0 -1 0
    outer loop
      vertex -7 -93 -11
      vertex 93 -93 -4.5
      vertex -7 -93 -4.5
    endloop
  endfacet
  facet normal 0 -1 -0
    outer loop
      vertex 93 -93 -4.5
      vertex -7 -93 -11
      vertex 93 -93 -11
    endloop
  endfacet
  facet normal 1 -0 0
    outer loop
      vertex 0 -86 -4.5
      vertex 0 0 -7.5
      vertex 0 0 -4.5
    endloop
  endfacet
  facet normal 1 0 0
    outer loop
      vertex 0 0 -7.5
      vertex 0 -86 -4.5
      vertex 0 -86 -7.5
    endloop
  endfacet
  facet normal -1 0 0
    outer loop
      vertex 86 -5 -11
      vertex 86 -86 -11
      vertex 86 -5 -7.5
    endloop
  endfacet
  facet normal -1 0 0
    outer loop
      vertex 86 -5 -7.5
      vertex 86 0 -4.5
      vertex 86 0 -7.5
    endloop
  endfacet
  facet normal -1 0 0
    outer loop
      vertex 86 -86 -4.5
      vertex 86 -5 -7.5
      vertex 86 -86 -11
    endloop
  endfacet
  facet normal -1 0 0
    outer loop
      vertex 86 -5 -7.5
      vertex 86 -86 -4.5
      vertex 86 0 -4.5
    endloop
  endfacet
  facet normal 0 1 0
    outer loop
      vertex 86 -86 -4.5
      vertex 5 -86 -7.5
      vertex 0 -86 -4.5
    endloop
  endfacet
  facet normal 0 1 -0
    outer loop
      vertex 86 -86 -11
      vertex 5 -86 -7.5
      vertex 86 -86 -4.5
    endloop
  endfacet
  facet normal 0 1 0
    outer loop
      vertex 5 -86 -7.5
      vertex 86 -86 -11
      vertex 5 -86 -11
    endloop
  endfacet
  facet normal 0 1 0
    outer loop
      vertex 0 -86 -4.5
      vertex 5 -86 -7.5
      vertex 0 -86 -7.5
    endloop
  endfacet
  facet normal 0 -1 0
    outer loop
      vertex 0 0 -7.5
      vertex 86 0 -4.5
      vertex 0 0 -4.5
    endloop
  endfacet
  facet normal 0 -1 -0
    outer loop
      vertex 86 0 -4.5
      vertex 0 0 -7.5
      vertex 86 0 -7.5
    endloop
  endfacet
  facet normal 1 -0 0
    outer loop
      vertex 5 -86 -7.5
      vertex 5 -5 -11
      vertex 5 -5 -7.5
    endloop
  endfacet
  facet normal 1 0 0
    outer loop
      vertex 5 -5 -11
      vertex 5 -86 -7.5
      vertex 5 -86 -11
    endloop
  endfacet
  facet normal 0 0 1
    outer loop
      vertex 86 0 -7.5
      vertex 5 -5 -7.5
      vertex 86 -5 -7.5
    endloop
  endfacet
  facet normal -0 0 1
    outer loop
      vertex 0 0 -7.5
      vertex 5 -5 -7.5
      vertex 86 0 -7.5
    endloop
  endfacet
  facet normal 0 0 1
    outer loop
      vertex 0 -86 -7.5
      vertex 5 -5 -7.5
      vertex 0 0 -7.5
    endloop
  endfacet
  facet normal 0 0 1
    outer loop
      vertex 5 -5 -7.5
      vertex 0 -86 -7.5
      vertex 5 -86 -7.5
    endloop
  endfacet
  facet normal 0 -1 0
    outer loop
      vertex 5 -5 -11
      vertex 86 -5 -7.5
      vertex 5 -5 -7.5
    endloop
  endfacet
  facet normal 0 -1 -0
    outer loop
      vertex 86 -5 -7.5
      vertex 5 -5 -11
      vertex 86 -5 -11
    endloop
  endfacet
  facet normal -0 0 1
    outer loop
      vertex -4.39615 0.741936 -4.5
      vertex 0 0 -4.5
      vertex -2.60385 0.741936 -4.5
    endloop
  endfacet
  facet normal 0 0 1
    outer loop
      vertex 0 -86 -4.5
      vertex -1.15385 -87.7954 -4.5
      vertex -0.599999 -89.5 -4.5
    endloop
  endfacet
  facet normal 0 0 1
    outer loop
      vertex 0 0 -4.5
      vertex -4.39615 0.741936 -4.5
      vertex 0 -86 -4.5
    endloop
  endfacet
  facet normal 0 0 1
    outer loop
      vertex 0 -86 -4.5
      vertex -2.60385 -86.7419 -4.5
      vertex -1.15385 -87.7954 -4.5
    endloop
  endfacet
  facet normal 0 0 1
    outer loop
      vertex -4.39615 -86.7419 -4.5
      vertex 0 -86 -4.5
      vertex -4.39615 0.741936 -4.5
    endloop
  endfacet
  facet normal 0 0 1
    outer loop
      vertex 0 -86 -4.5
      vertex -4.39615 -86.7419 -4.5
      vertex -2.60385 -86.7419 -4.5
    endloop
  endfacet
  facet normal 0 0 1
    outer loop
      vertex -5.84615 1.79542 -4.5
      vertex -4.39615 -86.7419 -4.5
      vertex -4.39615 0.741936 -4.5
    endloop
  endfacet
  facet normal 0 0 1
    outer loop
      vertex -5.84615 1.79542 -4.5
      vertex -5.84615 -87.7954 -4.5
      vertex -4.39615 -86.7419 -4.5
    endloop
  endfacet
  facet normal 0 0 1
    outer loop
      vertex -6.4 3.5 -4.5
      vertex -5.84615 -87.7954 -4.5
      vertex -5.84615 1.79542 -4.5
    endloop
  endfacet
  facet normal 0 0 1
    outer loop
      vertex -5.84615 -87.7954 -4.5
      vertex -6.4 3.5 -4.5
      vertex -6.4 -89.5 -4.5
    endloop
  endfacet
  facet normal -0 0 1
    outer loop
      vertex 91.8461 1.79542 -4.5
      vertex 92.4 -89.5 -4.5
      vertex 92.4 3.5 -4.5
    endloop
  endfacet
  facet normal 0 0 1
    outer loop
      vertex 91.8461 1.79542 -4.5
      vertex 91.8461 -87.7954 -4.5
      vertex 92.4 -89.5 -4.5
    endloop
  endfacet
  facet normal -0 0 1
    outer loop
      vertex 90.3961 0.741936 -4.5
      vertex 91.8461 -87.7954 -4.5
      vertex 91.8461 1.79542 -4.5
    endloop
  endfacet
  facet normal 0 0 1
    outer loop
      vertex 90.3961 0.741936 -4.5
      vertex 90.3961 -86.7419 -4.5
      vertex 91.8461 -87.7954 -4.5
    endloop
  endfacet
  facet normal 0 0 1
    outer loop
      vertex 86 0 -4.5
      vertex 90.3961 0.741936 -4.5
      vertex 88.6039 0.741936 -4.5
    endloop
  endfacet
  facet normal 0 0 1
    outer loop
      vertex 90.3961 0.741936 -4.5
      vertex 86 0 -4.5
      vertex 90.3961 -86.7419 -4.5
    endloop
  endfacet
  facet normal 0 0 1
    outer loop
      vertex 86 0 -4.5
      vertex 88.6039 0.741936 -4.5
      vertex 87.1539 1.79542 -4.5
    endloop
  endfacet
  facet normal -0 0 1
    outer loop
      vertex 86 -86 -4.5
      vertex 90.3961 -86.7419 -4.5
      vertex 86 0 -4.5
    endloop
  endfacet
  facet normal 0 0 1
    outer loop
      vertex 86 0 -4.5
      vertex 87.1539 1.79542 -4.5
      vertex 86.6 3.5 -4.5
    endloop
  endfacet
  facet normal 0 0 1
    outer loop
      vertex 90.3961 -86.7419 -4.5
      vertex 86 -86 -4.5
      vertex 88.6039 -86.7419 -4.5
    endloop
  endfacet
  facet normal 0 0 1
    outer loop
      vertex 93 7 -4.5
      vertex 92.4 3.5 -4.5
      vertex 93 -93 -4.5
    endloop
  endfacet
  facet normal 0 0 1
    outer loop
      vertex 93 7 -4.5
      vertex 91.8461 5.20458 -4.5
      vertex 92.4 3.5 -4.5
    endloop
  endfacet
  facet normal 0 0 1
    outer loop
      vertex 93 7 -4.5
      vertex 90.3961 6.25806 -4.5
      vertex 91.8461 5.20458 -4.5
    endloop
  endfacet
  facet normal 0 0 1
    outer loop
      vertex 93 7 -4.5
      vertex 88.6039 6.25806 -4.5
      vertex 90.3961 6.25806 -4.5
    endloop
  endfacet
  facet normal 0 0 1
    outer loop
      vertex 88.6039 -86.7419 -4.5
      vertex 86 -86 -4.5
      vertex 87.1539 -87.7954 -4.5
    endloop
  endfacet
  facet normal 0 0 1
    outer loop
      vertex 86.6 3.5 -4.5
      vertex 0 0 -4.5
      vertex 86 0 -4.5
    endloop
  endfacet
  facet normal 0 0 1
    outer loop
      vertex -0.599999 3.5 -4.5
      vertex 86.6 3.5 -4.5
      vertex 87.1539 5.20458 -4.5
    endloop
  endfacet
  facet normal 0 0 1
    outer loop
      vertex -1.15385 5.20458 -4.5
      vertex 87.1539 5.20458 -4.5
      vertex 88.6039 6.25806 -4.5
    endloop
  endfacet
  facet normal 0 0 1
    outer loop
      vertex -2.60385 6.25806 -4.5
      vertex 88.6039 6.25806 -4.5
      vertex 93 7 -4.5
    endloop
  endfacet
  facet normal -0 0 1
    outer loop
      vertex -1.15385 1.79542 -4.5
      vertex 0 0 -4.5
      vertex -0.599999 3.5 -4.5
    endloop
  endfacet
  facet normal 0 0 1
    outer loop
      vertex 86.6 3.5 -4.5
      vertex -0.599999 3.5 -4.5
      vertex 0 0 -4.5
    endloop
  endfacet
  facet normal 0 0 1
    outer loop
      vertex 87.1539 5.20458 -4.5
      vertex -1.15385 5.20458 -4.5
      vertex -0.599999 3.5 -4.5
    endloop
  endfacet
  facet normal 0 0 1
    outer loop
      vertex 88.6039 6.25806 -4.5
      vertex -2.60385 6.25806 -4.5
      vertex -1.15385 5.20458 -4.5
    endloop
  endfacet
  facet normal -0 0 1
    outer loop
      vertex -7 7 -4.5
      vertex -2.60385 6.25806 -4.5
      vertex 93 7 -4.5
    endloop
  endfacet
  facet normal 0 0 1
    outer loop
      vertex -6.4 3.5 -4.5
      vertex -7 7 -4.5
      vertex -6.4 -89.5 -4.5
    endloop
  endfacet
  facet normal 0 0 1
    outer loop
      vertex -5.84615 5.20458 -4.5
      vertex -7 7 -4.5
      vertex -6.4 3.5 -4.5
    endloop
  endfacet
  facet normal 0 0 1
    outer loop
      vertex -4.39615 6.25806 -4.5
      vertex -7 7 -4.5
      vertex -5.84615 5.20458 -4.5
    endloop
  endfacet
  facet normal 0 0 1
    outer loop
      vertex -2.60385 6.25806 -4.5
      vertex -7 7 -4.5
      vertex -4.39615 6.25806 -4.5
    endloop
  endfacet
  facet normal -0 0 1
    outer loop
      vertex 92.4 -89.5 -4.5
      vertex 93 -93 -4.5
      vertex 92.4 3.5 -4.5
    endloop
  endfacet
  facet normal -0 0 1
    outer loop
      vertex 91.8461 -91.2046 -4.5
      vertex 93 -93 -4.5
      vertex 92.4 -89.5 -4.5
    endloop
  endfacet
  facet normal -0 0 1
    outer loop
      vertex 90.3961 -92.2581 -4.5
      vertex 93 -93 -4.5
      vertex 91.8461 -91.2046 -4.5
    endloop
  endfacet
  facet normal -0 0 1
    outer loop
      vertex 88.6039 -92.2581 -4.5
      vertex 93 -93 -4.5
      vertex 90.3961 -92.2581 -4.5
    endloop
  endfacet
  facet normal 0 0 1
    outer loop
      vertex 87.1539 -87.7954 -4.5
      vertex 86 -86 -4.5
      vertex 86.6 -89.5 -4.5
    endloop
  endfacet
  facet normal -0 0 1
    outer loop
      vertex 0 -86 -4.5
      vertex 86.6 -89.5 -4.5
      vertex 86 -86 -4.5
    endloop
  endfacet
  facet normal 0 0 1
    outer loop
      vertex -0.599999 -89.5 -4.5
      vertex 86.6 -89.5 -4.5
      vertex 0 -86 -4.5
    endloop
  endfacet
  facet normal 0 0 1
    outer loop
      vertex 86.6 -89.5 -4.5
      vertex -0.599999 -89.5 -4.5
      vertex 87.1539 -91.2046 -4.5
    endloop
  endfacet
  facet normal 0 0 1
    outer loop
      vertex -1.15385 -91.2046 -4.5
      vertex 87.1539 -91.2046 -4.5
      vertex -0.599999 -89.5 -4.5
    endloop
  endfacet
  facet normal -0 0 1
    outer loop
      vertex -2.60385 0.741936 -4.5
      vertex 0 0 -4.5
      vertex -1.15385 1.79542 -4.5
    endloop
  endfacet
  facet normal 0 0 1
    outer loop
      vertex 87.1539 -91.2046 -4.5
      vertex -1.15385 -91.2046 -4.5
      vertex 88.6039 -92.2581 -4.5
    endloop
  endfacet
  facet normal 0 0 1
    outer loop
      vertex -2.60385 -92.2581 -4.5
      vertex 88.6039 -92.2581 -4.5
      vertex -1.15385 -91.2046 -4.5
    endloop
  endfacet
  facet normal 0 0 1
    outer loop
      vertex 88.6039 -92.2581 -4.5
      vertex -2.60385 -92.2581 -4.5
      vertex 93 -93 -4.5
    endloop
  endfacet
  facet normal 0 0 1
    outer loop
      vertex -7 -93 -4.5
      vertex -2.60385 -92.2581 -4.5
      vertex -4.39615 -92.2581 -4.5
    endloop
  endfacet
  facet normal 0 0 1
    outer loop
      vertex -2.60385 -92.2581 -4.5
      vertex -7 -93 -4.5
      vertex 93 -93 -4.5
    endloop
  endfacet
  facet normal 0 0 1
    outer loop
      vertex -5.84615 -91.2046 -4.5
      vertex -7 -93 -4.5
      vertex -4.39615 -92.2581 -4.5
    endloop
  endfacet
  facet normal 0 0 1
    outer loop
      vertex -6.4 -89.5 -4.5
      vertex -7 -93 -4.5
      vertex -5.84615 -91.2046 -4.5
    endloop
  endfacet
  facet normal 0 0 1
    outer loop
      vertex -7 -93 -4.5
      vertex -6.4 -89.5 -4.5
      vertex -7 7 -4.5
    endloop
  endfacet
  facet normal -0.951057 0.309017 0
    outer loop
      vertex -1.15385 1.79542 -11
      vertex -0.599999 3.5 -4.5
      vertex -0.599999 3.5 -11
    endloop
  endfacet
  facet normal -0.951057 0.309017 0
    outer loop
      vertex -0.599999 3.5 -4.5
      vertex -1.15385 1.79542 -11
      vertex -1.15385 1.79542 -4.5
    endloop
  endfacet
  facet normal 0.951057 0.309016 0
    outer loop
      vertex -5.84615 1.79542 -4.5
      vertex -6.4 3.5 -11
      vertex -6.4 3.5 -4.5
    endloop
  endfacet
  facet normal 0.951057 0.309016 0
    outer loop
      vertex -6.4 3.5 -11
      vertex -5.84615 1.79542 -4.5
      vertex -5.84615 1.79542 -11
    endloop
  endfacet
  facet normal 0 -1 0
    outer loop
      vertex -4.39615 6.25806 -11
      vertex -2.60385 6.25806 -4.5
      vertex -4.39615 6.25806 -4.5
    endloop
  endfacet
  facet normal 0 -1 -0
    outer loop
      vertex -2.60385 6.25806 -4.5
      vertex -4.39615 6.25806 -11
      vertex -2.60385 6.25806 -11
    endloop
  endfacet
  facet normal 0 1 -0
    outer loop
      vertex -2.60385 0.741936 -11
      vertex -4.39615 0.741936 -4.5
      vertex -2.60385 0.741936 -4.5
    endloop
  endfacet
  facet normal 0 1 0
    outer loop
      vertex -4.39615 0.741936 -4.5
      vertex -2.60385 0.741936 -11
      vertex -4.39615 0.741936 -11
    endloop
  endfacet
  facet normal -0.587784 0.809018 0
    outer loop
      vertex -1.15385 1.79542 -11
      vertex -2.60385 0.741936 -4.5
      vertex -1.15385 1.79542 -4.5
    endloop
  endfacet
  facet normal -0.587784 0.809018 0
    outer loop
      vertex -2.60385 0.741936 -4.5
      vertex -1.15385 1.79542 -11
      vertex -2.60385 0.741936 -11
    endloop
  endfacet
  facet normal 0.587784 0.809018 -0
    outer loop
      vertex -4.39615 0.741936 -11
      vertex -5.84615 1.79542 -4.5
      vertex -4.39615 0.741936 -4.5
    endloop
  endfacet
  facet normal 0.587784 0.809018 0
    outer loop
      vertex -5.84615 1.79542 -4.5
      vertex -4.39615 0.741936 -11
      vertex -5.84615 1.79542 -11
    endloop
  endfacet
  facet normal 0.951057 -0.309016 0
    outer loop
      vertex -6.4 3.5 -4.5
      vertex -5.84615 5.20458 -11
      vertex -5.84615 5.20458 -4.5
    endloop
  endfacet
  facet normal 0.951057 -0.309016 0
    outer loop
      vertex -5.84615 5.20458 -11
      vertex -6.4 3.5 -4.5
      vertex -6.4 3.5 -11
    endloop
  endfacet
  facet normal -0.587783 -0.809019 0
    outer loop
      vertex -2.60385 6.25806 -11
      vertex -1.15385 5.20458 -4.5
      vertex -2.60385 6.25806 -4.5
    endloop
  endfacet
  facet normal -0.587783 -0.809019 -0
    outer loop
      vertex -1.15385 5.20458 -4.5
      vertex -2.60385 6.25806 -11
      vertex -1.15385 5.20458 -11
    endloop
  endfacet
  facet normal 0.587783 -0.809019 0
    outer loop
      vertex -5.84615 5.20458 -11
      vertex -4.39615 6.25806 -4.5
      vertex -5.84615 5.20458 -4.5
    endloop
  endfacet
  facet normal 0.587783 -0.809019 0
    outer loop
      vertex -4.39615 6.25806 -4.5
      vertex -5.84615 5.20458 -11
      vertex -4.39615 6.25806 -11
    endloop
  endfacet
  facet normal -0.951057 -0.309017 0
    outer loop
      vertex -0.599999 3.5 -11
      vertex -1.15385 5.20458 -4.5
      vertex -1.15385 5.20458 -11
    endloop
  endfacet
  facet normal -0.951057 -0.309017 0
    outer loop
      vertex -1.15385 5.20458 -4.5
      vertex -0.599999 3.5 -11
      vertex -0.599999 3.5 -4.5
    endloop
  endfacet
  facet normal -0.951049 0.309041 0
    outer loop
      vertex 91.8461 1.79542 -11
      vertex 92.4 3.5 -4.5
      vertex 92.4 3.5 -11
    endloop
  endfacet
  facet normal -0.951049 0.309041 0
    outer loop
      vertex 92.4 3.5 -4.5
      vertex 91.8461 1.79542 -11
      vertex 91.8461 1.79542 -4.5
    endloop
  endfacet
  facet normal 0.951049 0.309041 0
    outer loop
      vertex 87.1539 1.79542 -4.5
      vertex 86.6 3.5 -11
      vertex 86.6 3.5 -4.5
    endloop
  endfacet
  facet normal 0.951049 0.309041 0
    outer loop
      vertex 86.6 3.5 -11
      vertex 87.1539 1.79542 -4.5
      vertex 87.1539 1.79542 -11
    endloop
  endfacet
  facet normal 0 1 -0
    outer loop
      vertex 90.3961 0.741936 -11
      vertex 88.6039 0.741936 -4.5
      vertex 90.3961 0.741936 -4.5
    endloop
  endfacet
  facet normal 0 1 0
    outer loop
      vertex 88.6039 0.741936 -4.5
      vertex 90.3961 0.741936 -11
      vertex 88.6039 0.741936 -11
    endloop
  endfacet
  facet normal -0.587784 0.809018 0
    outer loop
      vertex 91.8461 1.79542 -11
      vertex 90.3961 0.741936 -4.5
      vertex 91.8461 1.79542 -4.5
    endloop
  endfacet
  facet normal -0.587784 0.809018 0
    outer loop
      vertex 90.3961 0.741936 -4.5
      vertex 91.8461 1.79542 -11
      vertex 90.3961 0.741936 -11
    endloop
  endfacet
  facet normal 0.587784 0.809018 -0
    outer loop
      vertex 88.6039 0.741936 -11
      vertex 87.1539 1.79542 -4.5
      vertex 88.6039 0.741936 -4.5
    endloop
  endfacet
  facet normal 0.587784 0.809018 0
    outer loop
      vertex 87.1539 1.79542 -4.5
      vertex 88.6039 0.741936 -11
      vertex 87.1539 1.79542 -11
    endloop
  endfacet
  facet normal -0.951049 -0.309041 0
    outer loop
      vertex 92.4 3.5 -11
      vertex 91.8461 5.20458 -4.5
      vertex 91.8461 5.20458 -11
    endloop
  endfacet
  facet normal -0.951049 -0.309041 0
    outer loop
      vertex 91.8461 5.20458 -4.5
      vertex 92.4 3.5 -11
      vertex 92.4 3.5 -4.5
    endloop
  endfacet
  facet normal 0.951049 -0.309041 0
    outer loop
      vertex 86.6 3.5 -4.5
      vertex 87.1539 5.20458 -11
      vertex 87.1539 5.20458 -4.5
    endloop
  endfacet
  facet normal 0.951049 -0.309041 0
    outer loop
      vertex 87.1539 5.20458 -11
      vertex 86.6 3.5 -4.5
      vertex 86.6 3.5 -11
    endloop
  endfacet
  facet normal 0 -1 0
    outer loop
      vertex 88.6039 6.25806 -11
      vertex 90.3961 6.25806 -4.5
      vertex 88.6039 6.25806 -4.5
    endloop
  endfacet
  facet normal 0 -1 -0
    outer loop
      vertex 90.3961 6.25806 -4.5
      vertex 88.6039 6.25806 -11
      vertex 90.3961 6.25806 -11
    endloop
  endfacet
  facet normal -0.587783 -0.809019 0
    outer loop
      vertex 90.3961 6.25806 -11
      vertex 91.8461 5.20458 -4.5
      vertex 90.3961 6.25806 -4.5
    endloop
  endfacet
  facet normal -0.587783 -0.809019 -0
    outer loop
      vertex 91.8461 5.20458 -4.5
      vertex 90.3961 6.25806 -11
      vertex 91.8461 5.20458 -11
    endloop
  endfacet
  facet normal 0.587783 -0.809019 0
    outer loop
      vertex 87.1539 5.20458 -11
      vertex 88.6039 6.25806 -4.5
      vertex 87.1539 5.20458 -4.5
    endloop
  endfacet
  facet normal 0.587783 -0.809019 0
    outer loop
      vertex 88.6039 6.25806 -4.5
      vertex 87.1539 5.20458 -11
      vertex 88.6039 6.25806 -11
    endloop
  endfacet
  facet normal -0.951058 0.309013 0
    outer loop
      vertex -1.15385 -91.2046 -11
      vertex -0.599999 -89.5 -4.5
      vertex -0.599999 -89.5 -11
    endloop
  endfacet
  facet normal -0.951058 0.309013 0
    outer loop
      vertex -0.599999 -89.5 -4.5
      vertex -1.15385 -91.2046 -11
      vertex -1.15385 -91.2046 -4.5
    endloop
  endfacet
  facet normal 0 1 -0
    outer loop
      vertex -2.60385 -92.2581 -11
      vertex -4.39615 -92.2581 -4.5
      vertex -2.60385 -92.2581 -4.5
    endloop
  endfacet
  facet normal 0 1 0
    outer loop
      vertex -4.39615 -92.2581 -4.5
      vertex -2.60385 -92.2581 -11
      vertex -4.39615 -92.2581 -11
    endloop
  endfacet
  facet normal -0.58779 0.809013 0
    outer loop
      vertex -1.15385 -91.2046 -11
      vertex -2.60385 -92.2581 -4.5
      vertex -1.15385 -91.2046 -4.5
    endloop
  endfacet
  facet normal -0.58779 0.809013 0
    outer loop
      vertex -2.60385 -92.2581 -4.5
      vertex -1.15385 -91.2046 -11
      vertex -2.60385 -92.2581 -11
    endloop
  endfacet
  facet normal -0.951058 -0.309013 0
    outer loop
      vertex -0.599999 -89.5 -11
      vertex -1.15385 -87.7954 -4.5
      vertex -1.15385 -87.7954 -11
    endloop
  endfacet
  facet normal -0.951058 -0.309013 0
    outer loop
      vertex -1.15385 -87.7954 -4.5
      vertex -0.599999 -89.5 -11
      vertex -0.599999 -89.5 -4.5
    endloop
  endfacet
  facet normal -0.58779 -0.809013 0
    outer loop
      vertex -2.60385 -86.7419 -11
      vertex -1.15385 -87.7954 -4.5
      vertex -2.60385 -86.7419 -4.5
    endloop
  endfacet
  facet normal -0.58779 -0.809013 -0
    outer loop
      vertex -1.15385 -87.7954 -4.5
      vertex -2.60385 -86.7419 -11
      vertex -1.15385 -87.7954 -11
    endloop
  endfacet
  facet normal 0.58779 -0.809013 0
    outer loop
      vertex -5.84615 -87.7954 -11
      vertex -4.39615 -86.7419 -4.5
      vertex -5.84615 -87.7954 -4.5
    endloop
  endfacet
  facet normal 0.58779 -0.809013 0
    outer loop
      vertex -4.39615 -86.7419 -4.5
      vertex -5.84615 -87.7954 -11
      vertex -4.39615 -86.7419 -11
    endloop
  endfacet
  facet normal 0.58779 0.809013 -0
    outer loop
      vertex -4.39615 -92.2581 -11
      vertex -5.84615 -91.2046 -4.5
      vertex -4.39615 -92.2581 -4.5
    endloop
  endfacet
  facet normal 0.58779 0.809013 0
    outer loop
      vertex -5.84615 -91.2046 -4.5
      vertex -4.39615 -92.2581 -11
      vertex -5.84615 -91.2046 -11
    endloop
  endfacet
  facet normal 0.951058 -0.309013 0
    outer loop
      vertex -6.4 -89.5 -4.5
      vertex -5.84615 -87.7954 -11
      vertex -5.84615 -87.7954 -4.5
    endloop
  endfacet
  facet normal 0.951058 -0.309013 0
    outer loop
      vertex -5.84615 -87.7954 -11
      vertex -6.4 -89.5 -4.5
      vertex -6.4 -89.5 -11
    endloop
  endfacet
  facet normal 0.951058 0.309013 0
    outer loop
      vertex -5.84615 -91.2046 -4.5
      vertex -6.4 -89.5 -11
      vertex -6.4 -89.5 -4.5
    endloop
  endfacet
  facet normal 0.951058 0.309013 0
    outer loop
      vertex -6.4 -89.5 -11
      vertex -5.84615 -91.2046 -4.5
      vertex -5.84615 -91.2046 -11
    endloop
  endfacet
  facet normal 0 -1 0
    outer loop
      vertex -4.39615 -86.7419 -11
      vertex -2.60385 -86.7419 -4.5
      vertex -4.39615 -86.7419 -4.5
    endloop
  endfacet
  facet normal 0 -1 -0
    outer loop
      vertex -2.60385 -86.7419 -4.5
      vertex -4.39615 -86.7419 -11
      vertex -2.60385 -86.7419 -11
    endloop
  endfacet
  facet normal -0.95105 0.309038 0
    outer loop
      vertex 91.8461 -91.2046 -11
      vertex 92.4 -89.5 -4.5
      vertex 92.4 -89.5 -11
    endloop
  endfacet
  facet normal -0.95105 0.309038 0
    outer loop
      vertex 92.4 -89.5 -4.5
      vertex 91.8461 -91.2046 -11
      vertex 91.8461 -91.2046 -4.5
    endloop
  endfacet
  facet normal 0 1 -0
    outer loop
      vertex 90.3961 -92.2581 -11
      vertex 88.6039 -92.2581 -4.5
      vertex 90.3961 -92.2581 -4.5
    endloop
  endfacet
  facet normal 0 1 0
    outer loop
      vertex 88.6039 -92.2581 -4.5
      vertex 90.3961 -92.2581 -11
      vertex 88.6039 -92.2581 -11
    endloop
  endfacet
  facet normal -0.58779 0.809013 0
    outer loop
      vertex 91.8461 -91.2046 -11
      vertex 90.3961 -92.2581 -4.5
      vertex 91.8461 -91.2046 -4.5
    endloop
  endfacet
  facet normal -0.58779 0.809013 0
    outer loop
      vertex 90.3961 -92.2581 -4.5
      vertex 91.8461 -91.2046 -11
      vertex 90.3961 -92.2581 -11
    endloop
  endfacet
  facet normal -0.95105 -0.309038 0
    outer loop
      vertex 92.4 -89.5 -11
      vertex 91.8461 -87.7954 -4.5
      vertex 91.8461 -87.7954 -11
    endloop
  endfacet
  facet normal -0.95105 -0.309038 0
    outer loop
      vertex 91.8461 -87.7954 -4.5
      vertex 92.4 -89.5 -11
      vertex 92.4 -89.5 -4.5
    endloop
  endfacet
  facet normal -0.58779 -0.809013 0
    outer loop
      vertex 90.3961 -86.7419 -11
      vertex 91.8461 -87.7954 -4.5
      vertex 90.3961 -86.7419 -4.5
    endloop
  endfacet
  facet normal -0.58779 -0.809013 -0
    outer loop
      vertex 91.8461 -87.7954 -4.5
      vertex 90.3961 -86.7419 -11
      vertex 91.8461 -87.7954 -11
    endloop
  endfacet
  facet normal 0.58779 -0.809013 0
    outer loop
      vertex 87.1539 -87.7954 -11
      vertex 88.6039 -86.7419 -4.5
      vertex 87.1539 -87.7954 -4.5
    endloop
  endfacet
  facet normal 0.58779 -0.809013 0
    outer loop
      vertex 88.6039 -86.7419 -4.5
      vertex 87.1539 -87.7954 -11
      vertex 88.6039 -86.7419 -11
    endloop
  endfacet
  facet normal 0.58779 0.809013 -0
    outer loop
      vertex 88.6039 -92.2581 -11
      vertex 87.1539 -91.2046 -4.5
      vertex 88.6039 -92.2581 -4.5
    endloop
  endfacet
  facet normal 0.58779 0.809013 0
    outer loop
      vertex 87.1539 -91.2046 -4.5
      vertex 88.6039 -92.2581 -11
      vertex 87.1539 -91.2046 -11
    endloop
  endfacet
  facet normal 0.95105 -0.309038 0
    outer loop
      vertex 86.6 -89.5 -4.5
      vertex 87.1539 -87.7954 -11
      vertex 87.1539 -87.7954 -4.5
    endloop
  endfacet
  facet normal 0.95105 -0.309038 0
    outer loop
      vertex 87.1539 -87.7954 -11
      vertex 86.6 -89.5 -4.5
      vertex 86.6 -89.5 -11
    endloop
  endfacet
  facet normal 0.95105 0.309038 0
    outer loop
      vertex 87.1539 -91.2046 -4.5
      vertex 86.6 -89.5 -11
      vertex 86.6 -89.5 -4.5
    endloop
  endfacet
  facet normal 0.95105 0.309038 0
    outer loop
      vertex 86.6 -89.5 -11
      vertex 87.1539 -91.2046 -4.5
      vertex 87.1539 -91.2046 -11
    endloop
  endfacet
  facet normal 0 -1 0
    outer loop
      vertex 88.6039 -86.7419 -11
      vertex 90.3961 -86.7419 -4.5
      vertex 88.6039 -86.7419 -4.5
    endloop
  endfacet
  facet normal 0 -1 -0
    outer loop
      vertex 90.3961 -86.7419 -4.5
      vertex 88.6039 -86.7419 -11
      vertex 90.3961 -86.7419 -11
    endloop
  endfacet
endsolid OpenSCAD_Model
